{"title":"Tekken 2010 DVDRip XviD By SKITTLES","uid":5748937,"size":732442853,"categoryP":"video","categoryS":"movies","magnet":"?xt=urn:btih:a9452096a06f9ad3d29bd20215b241ceb9b3bd43&amp;dn=Tekken+2010+DVDRip+XviD+By+SKITTLES&amp;tr=udp%3A%2F%2Ftracker.openbittorrent.com%3A80&amp;tr=udp%3A%2F%2Fopen.demonii.com%3A1337&amp;tr=udp%3A%2F%2Ftracker.coppersurfer.tk%3A6969&amp;tr=udp%3A%2F%2Fexodus.desync.com%3A6969","seeders":0,"leechers":0,"uploader":"SkittlesRG","files":-1,"time":1281336879,"description":"[img]http://leetleech.org/images/63016748063582590106.jpg[/img]\n\nUser Rating:\n6.9/10   727 votes\n\nGenre:\nAction | Adventure | Drama | Fantasy | Sci-Fi \n\nPlot:\nA high-octane action movie about a young man who discovers he holds a great power and must battle a team of elite fighters who will stop at nothing in order to get it from him.\n\n[img]http://leetleech.org/images/70649651241894033933.jpg[/img]\nVideo\nID                               : 0\nFormat                           : MPEG-4 Visual\nFormat profile                   : Advanced Simple@L5\nFormat settings, BVOP            : Yes\nFormat settings, QPel            : No\nFormat settings, GMC             : No warppoints\nFormat settings, Matrix          : Default (H.263)\nMuxing mode                      : Packed bitstream\nCodec ID                         : XVID\nCodec ID/Hint                    : XviD\nDuration                         : 1h 27mn\nBit rate                         : 978 Kbps\nWidth                            : 608 pixels\nHeight                           : 336 pixels\nDisplay aspect ratio             : 16:9\nFrame rate                       : 25.000 fps\nResolution                       : 8 bits\nColorimetry                      : 4:2:0\nScan type                        : Progressive\nBits/(Pixel*Frame)               : 0.192\nStream size                      : 612 MiB (88%)\nWriting library                  : XviD 1.2.1 (UTC 2008-12-04)\n\nAudio\nID                               : 1\nFormat                           : MPEG Audio\nFormat version                   : Version 1\nFormat profile                   : Layer 3\nMode                             : Joint stereo\nFormat_Settings_ModeExtension    : MS Stereo\nCodec ID                         : 55\nCodec ID/Hint                    : MP3\nDuration                         : 1h 27mn\nBit rate mode                    : Constant\nBit rate                         : 128 Kbps\nChannel(s)                       : 2 channels\nSampling rate                    : 48.0 KHz\nStream size                      : 80.1 MiB (11%)\nAlignment                        : Aligned on interleaves\nInterleave, duration             : 40 ms (1.00 video frame)\nInterleave, preload duration     : 504 ms\n\nURL: http://www.imdb.com/title/tt0411951/\nTrailer:","torrent":{"xt":"urn:btih:a9452096a06f9ad3d29bd20215b241ceb9b3bd43","amp;dn":"Tekken+2010+DVDRip+XviD+By+SKITTLES","amp;tr":["udp%3A%2F%2Ftracker.openbittorrent.com%3A80","udp%3A%2F%2Fopen.demonii.com%3A1337","udp%3A%2F%2Ftracker.coppersurfer.tk%3A6969","udp%3A%2F%2Fexodus.desync.com%3A6969"],"infoHash":"a9452096a06f9ad3d29bd20215b241ceb9b3bd43","infoHashBuffer":{"type":"Buffer","data":[169,69,32,150,160,111,154,211,210,155,210,2,21,178,65,206,185,179,189,67]},"announce":[],"urlList":[]}}